<?xml version="1.0" encoding="UTF-8"?>
<svg width="20px" height="20px" viewBox="0 0 20 20" version="1.1" xmlns="http://www.w3.org/2000/svg" xmlns:xlink="http://www.w3.org/1999/xlink">
    <!-- Generator: Sketch 41.2 (35397) - http://www.bohemiancoding.com/sketch -->
    <title>github-circle-white-transparent</title>
    <desc>Created with Sketch.</desc>
    <defs></defs>
    <g id="Page-1" stroke="none" stroke-width="1" fill="none" fill-rule="evenodd">
        <g id="github-circle-white-transparent" fill="#FFFFFF">
            <path d="M10,0 C4.4771525,-2.22044605e-15 0,4.4771525 -4.4408921e-16,10 C0,14.42 2.87,18.17 6.84,19.5 C7.34,19.58 7.5,19.27 7.5,19 L7.5,17.31 C4.73,17.91 4.14,15.97 4.14,15.97 C3.68,14.81 3.03,14.5 3.03,14.5 C2.12,13.88 3.1,13.9 3.1,13.9 C4.1,13.97 4.63,14.93 4.63,14.93 C5.5,16.45 6.97,16 7.54,15.76 C7.63,15.11 7.89,14.67 8.17,14.42 C5.95,14.17 3.62,13.31 3.62,9.5 C3.62,8.39 4,7.5 4.65,6.79 C4.55,6.54 4.2,5.5 4.75,4.15 C4.75,4.15 5.59,3.88 7.5,5.17 C8.29,4.95 9.15,4.84 10,4.84 C10.85,4.84 11.71,4.95 12.5,5.17 C14.41,3.88 15.25,4.15 15.25,4.15 C15.8,5.5 15.45,6.54 15.35,6.79 C16,7.5 16.38,8.39 16.38,9.5 C16.38,13.32 14.04,14.16 11.81,14.41 C12.17,14.72 12.5,15.33 12.5,16.26 L12.5,19 C12.5,19.27 12.66,19.59 13.17,19.5 C17.14,18.16 20,14.42 20,10 C20,7.3478351 18.9464316,4.80429597 17.0710678,2.92893219 C15.195704,1.0535684 12.6521649,-2.22044605e-16 10,-4.4408921e-16 L10,0 Z" id="Shape"></path>
        </g>
    </g>
</svg>