<?xml version="1.0" encoding="UTF-8"?>
<svg width="105px" height="107px" viewBox="0 0 105 107" version="1.1" xmlns="http://www.w3.org/2000/svg" xmlns:xlink="http://www.w3.org/1999/xlink">
    <!-- Generator: Sketch 42 (36781) - http://www.bohemiancoding.com/sketch -->
    <title>bottom-sheet</title>
    <desc>Created with Sketch.</desc>
    <defs></defs>
    <g id="Page-1" stroke="none" stroke-width="1" fill="none" fill-rule="evenodd">
        <g id="Component-Directory" transform="translate(-679.000000, -3533.000000)">
            <g id="bottom-sheet" transform="translate(679.000000, 3533.000000)">
                <path d="M0,1.42108547e-14 L105,1.42108547e-14 L105,71.6462222 C105,76.2598863 101.262994,80 96.6400469,80 L8.35995315,80 C3.74287852,80 0,76.2487352 0,71.6462222 L0,1.42108547e-14 Z" id="card" fill="#F4F6F7" transform="translate(52.500000, 40.000000) scale(1, -1) translate(-52.500000, -40.000000) "></path>
                <path d="M2.06623924e-14,63.3689242 C2.28558184e-14,58.746895 3.73700559,55 8.35995315,55 L96.6400469,55 C101.257121,55 105,58.7331752 105,63.3689242 L105,106.909111 L0,106.909111 L2.06623924e-14,63.3689242 Z" id="bottom" fill="#00BCD4" transform="translate(52.500000, 80.954555) scale(1, -1) translate(-52.500000, -80.954555) "></path>
                <circle id="fab" fill="#CED2D4" cx="83" cy="55" r="14"></circle>
            </g>
        </g>
    </g>
</svg>