<svg width="100" height="100" xmlns="http://www.w3.org/2000/svg" xmlns:xlink="http://www.w3.org/1999/xlink" viewBox="0 0 100 100"><defs><path d="M8 0h80a8 8 0 0 1 8 8v92H0V8a8 8 0 0 1 8-8z" id="a"/></defs><g transform="translate(2)" fill="none" fill-rule="evenodd"><mask id="b" fill="#fff"><use xlink:href="#a"/></mask><use fill="#F4F6F7" fill-rule="nonzero" xlink:href="#a"/><path d="M8 37h80a8 8 0 0 1 8 8v55H0V45a8 8 0 0 1 8-8z" fill="#00BDD5" fill-rule="nonzero" mask="url(#b)" class="docs-svg-primary-light-20-fill"/><g mask="url(#b)"><g transform="translate(5 42)" fill="#FFF" fill-rule="nonzero"><circle cx="7" cy="7" r="7"/><path d="M20 2h33v4H20zM20 9h60v4H20z"/></g></g><g mask="url(#b)"><g transform="translate(5 62)" fill="#FFF" fill-rule="nonzero"><circle cx="7" cy="7" r="7"/><path d="M20 2h33v4H20zM20 9h60v4H20z"/></g></g><g mask="url(#b)"><g transform="translate(5 82)" fill="#FFF" fill-rule="nonzero"><circle cx="7" cy="7" r="7"/><path d="M20 2h33v4H20zM20 9h60v4H20z"/></g></g></g></svg>
