<svg width="100" height="100" xmlns="http://www.w3.org/2000/svg" viewBox="0 0 100 100"><g fill-rule="nonzero" fill="none"><g transform="translate(0 74.874)" fill="#D8D8D8"><circle cx="11.712" cy="11.712" r="11.712"/><path d="M33.4 8H72V3H31v5h2.399zm-.003 13H99v-5H31v5h2.397z"/></g><g transform="translate(0 37.937)" fill="#D8D8D8"><circle cx="11.712" cy="11.712" r="11.712"/><path d="M33.4 8H72V3H31v5h2.399zm-.003 13H99v-5H31v5h2.397z"/></g><g fill="#D8D8D8" transform="translate(0 1)"><circle cx="11.712" cy="11.712" r="11.712"/><path d="M33.4 8H72V3H31v5h2.399zm-.003 13H99v-5H31v5h2.397z"/></g><g fill="#00BDD5" class="docs-svg-primary-dark-30-fill"><path d="M31.216 30h68v3h-68zM31.216 67h68v3h-68z"/></g></g></svg>
