<svg width="100" height="100" xmlns="http://www.w3.org/2000/svg" viewBox="0 0 100 100"><g fill="none" fill-rule="nonzero"><path d="M12 7h77a4 4 0 0 1 4 4v16H8V11a4 4 0 0 1 4-4z" fill="#F4F6F7"/><path fill="#00BCD4" d="M77.41 13.59L82 18.17l4.59-4.58L88 15l-6 6-6-6zM13 15h55v4H13z" class="docs-svg-primary-light-20-fill"/><g><path d="M8 27h85v39a4 4 0 0 1-4 4H12a4 4 0 0 1-4-4V27z" fill="#F4F6F7"/><path fill="#00BCD4" d="M77.41 40.41L82 35.83l4.59 4.58L88 39l-6-6-6 6zM13 35h55v4H13z" class="docs-svg-primary-light-20-fill"/></g><g transform="translate(8 73)"><rect fill="#F4F6F7" width="85" height="20" rx="4"/><path fill="#00BCD4" d="M69.41 6.59L74 11.17l4.59-4.58L80 8l-6 6-6-6zM5 8h55v4H5z" class="docs-svg-primary-light-20-fill"/></g></g></svg>
