<svg width="100" height="100" xmlns="http://www.w3.org/2000/svg" xmlns:xlink="http://www.w3.org/1999/xlink" viewBox="0 0 100 100"><defs><rect id="a" width="96" height="100" rx="8"/></defs><g transform="translate(2)" fill="none" fill-rule="evenodd"><mask id="b" fill="#fff"><use xlink:href="#a"/></mask><use fill="#F4F6F7" fill-rule="nonzero" xlink:href="#a"/><path fill="#D8D8D8" fill-rule="nonzero" mask="url(#b)" d="M0 0h96v18H0z"/><g mask="url(#b)" fill="#FFF" fill-rule="nonzero"><path d="M6 7h16v4H6zM28 7h33v4H28zM67 7h23v4H67z"/></g><g mask="url(#b)" fill="#D8D8D8" fill-rule="nonzero"><path d="M6 28h12v4H6zM28 28h28v4H28zM67 28h21v4H67z"/></g><g mask="url(#b)" fill="#D8D8D8" fill-rule="nonzero"><path d="M6 41h16v4H6zM28 41h33v4H28zM67 41h23v4H67z"/></g><g mask="url(#b)" fill="#D8D8D8" fill-rule="nonzero"><path d="M6 54h7v4H6zM28 54h21v4H28zM67 54h14v4H67z"/></g><g mask="url(#b)" fill="#D8D8D8" fill-rule="nonzero"><path d="M6 67h16v4H6zM28 67h33v4H28zM67 67h23v4H67z"/></g><g mask="url(#b)" fill-rule="nonzero"><g transform="translate(0 82)"><path fill="#00BCD4" d="M0 0h96v18H0z" class="docs-svg-primary-dark-30-fill"/><circle fill="#D8D8D8" cx="86" cy="9" r="6"/><circle fill="#D8D8D8" cx="72" cy="9" r="6"/><path fill="#D8D8D8" d="M29 7h33v4H29z"/></g></g></g></svg>
