<svg width="100" height="100" xmlns="http://www.w3.org/2000/svg" xmlns:xlink="http://www.w3.org/1999/xlink" viewBox="0 0 100 100"><defs><rect id="a" width="96" height="100" rx="8"/></defs><g transform="translate(2)" fill="none" fill-rule="evenodd"><mask id="b" fill="#fff"><use xlink:href="#a"/></mask><use fill="#F4F6F7" fill-rule="nonzero" xlink:href="#a"/><path fill="#D8D8D8" fill-rule="nonzero" mask="url(#b)" d="M0 0h96v18H0z"/><g mask="url(#b)" fill="#00BCD4" fill-rule="nonzero" class="docs-svg-primary-dark-30-fill"><path d="M39 9.5l-.793-.793-3.145 3.139V5h-1.124v6.846L30.797 8.7 30 9.5l4.5 4.5zM6 7h21v4H6zM45 7h33v4H45z"/></g><g mask="url(#b)" fill="#D8D8D8" fill-rule="nonzero"><path d="M6 28h18v4H6zM45 28h28v4H45z"/></g><g mask="url(#b)" fill="#D8D8D8" fill-rule="nonzero"><path d="M6 41h16v4H6zM45 41h44v4H45z"/></g><g mask="url(#b)" fill="#D8D8D8" fill-rule="nonzero"><path d="M6 54h13v4H6zM45 54h38v4H45z"/></g><g mask="url(#b)" fill="#D8D8D8" fill-rule="nonzero"><path d="M6 67h16v4H6zM45 67h24v4H45z"/></g><g mask="url(#b)" fill="#D8D8D8" fill-rule="nonzero"><path d="M6 80h22v4H6zM45 80h18v4H45z"/></g></g></svg>
