<svg width="100" height="100" xmlns="http://www.w3.org/2000/svg" viewBox="0 0 100 100"><g transform="translate(2)" fill-rule="nonzero" fill="none"><rect fill="#F4F6F7" width="96" height="100" rx="4"/><g transform="translate(2 4)"><g fill="#D8D8D8"><path d="M20 1h30v4H20zM20 9h40v4H20z"/></g><circle fill="#00BCD4" cx="8" cy="8" r="8" class="docs-svg-primary-dark-30-fill"/></g><g transform="translate(2 49)" fill="#D8D8D8"><path d="M20 2h30v4H20zM20 10h40v4H20z"/><circle cx="8" cy="8" r="8"/></g><g transform="translate(2 81)" fill="#D8D8D8"><path d="M20 2h30v4H20zM20 10h40v4H20z"/><circle cx="8" cy="8" r="8"/></g><path fill="#D8D8D8" d="M8.5 67h3v12h-3zM8.5 22h3v25h-3z"/></g></svg>
