<svg width="100" height="100" xmlns="http://www.w3.org/2000/svg" viewBox="0 0 100 100"><g fill-rule="nonzero" fill="none"><path d="M10 13h82a4 4 0 0 1 4 4v12H6V17a4 4 0 0 1 4-4z" fill="#F4F6F7"/><path fill="#00BCD4" d="M11.59 25.59L16.17 21l-4.58-4.59L13 15l6 6-6 6zM24 19h54v4H24z" class="docs-svg-primary-dark-30-fill"/><path d="M10 76h86v12a4 4 0 0 1-4 4H10a4 4 0 0 1-4-4v-8a4 4 0 0 1 4-4z" fill="#F4F6F7"/><path fill="#00BCD4" d="M11.59 88.59L16.17 84l-4.58-4.59L13 78l6 6-6 6zM24 82h54v4H24z" class="docs-svg-primary-dark-30-fill"/><g><path d="M6 29h90v12a4 4 0 0 1-4 4H10a4 4 0 0 1-4-4V29z" fill="#F4F6F7"/><path fill="#00BCD4" d="M24 35h54v4H24zM9.41 33.59L14 38.17l4.59-4.58L20 35l-6 6-6-6z" class="docs-svg-primary-dark-30-fill"/></g><g><path fill="#F4F6F7" d="M23 45h73v16H23z"/><path fill="#00BCD4" d="M33 51h54v4H33z" class="docs-svg-primary-dark-30-fill"/></g><g><path fill="#F4F6F7" d="M23 61h73v16H23z"/><path fill="#00BCD4" d="M33 67h54v4H33z" class="docs-svg-primary-dark-30-fill"/></g></g></svg>
